<svg width="544" height="827" viewBox="0 0 544 827" fill="none" xmlns="http://www.w3.org/2000/svg">
<rect x="23" y="188" width="187" height="493" transform="rotate(-90 23 188)" fill="#EDEDED" stroke="black" stroke-width="2"/>
<rect x="23" y="26" width="25" height="493" transform="rotate(-90 23 26)" fill="#EDEDED" stroke="black" stroke-width="2"/>
<rect x="113" y="157" width="6" height="4" transform="rotate(-90 113 157)" stroke="black" stroke-width="2"/>
<rect x="174" y="157" width="6" height="4" transform="rotate(-90 174 157)" stroke="black" stroke-width="2"/>
<rect x="115.585" y="150.371" width="59.7108" height="2" transform="rotate(-30.1707 115.585 150.371)" fill="black"/>
<path d="M166.5 121.499V121.499C170.244 129.637 172.654 138.325 173.638 147.229L174 150.499" stroke="black" stroke-width="2"/>
<rect x="180" y="188" width="50" height="171" transform="rotate(-90 180 188)" fill="#EDEDED" stroke="black" stroke-width="2"/>
<rect x="179.856" y="151" width="167.288" height="6" fill="#E5E5E5" stroke="black" stroke-width="2"/>
<rect x="179.909" y="151" width="12" height="6" fill="#E5E5E5" stroke="black" stroke-width="2"/>
<rect x="231.576" y="151" width="12" height="6" fill="#E5E5E5" stroke="black" stroke-width="2"/>
<rect x="283.242" y="151" width="12" height="6" fill="#E5E5E5" stroke="black" stroke-width="2"/>
<rect x="334.909" y="151" width="12" height="6" fill="#E5E5E5" stroke="black" stroke-width="2"/>
<rect x="-1" y="1" width="440.752" height="6" transform="matrix(-1 0 0 1 491.376 13)" fill="#E5E5E5" stroke="black" stroke-width="2"/>
<rect x="-1" y="1" width="12" height="6" transform="matrix(-1 0 0 1 491.091 13)" fill="#E5E5E5" stroke="black" stroke-width="2"/>
<rect x="-1" y="1" width="12" height="6" transform="matrix(-1 0 0 1 429.948 13)" fill="#E5E5E5" stroke="black" stroke-width="2"/>
<rect x="-1" y="1" width="12" height="6" transform="matrix(-1 0 0 1 368.805 13)" fill="#E5E5E5" stroke="black" stroke-width="2"/>
<rect x="-1" y="1" width="12" height="6" transform="matrix(-1 0 0 1 307.662 13)" fill="#E5E5E5" stroke="#383838" stroke-width="2"/>
<rect x="-1" y="1" width="12" height="6" transform="matrix(-1 0 0 1 246.519 13)" fill="#E5E5E5" stroke="#383838" stroke-width="2"/>
<rect x="-1" y="1" width="12" height="6" transform="matrix(-1 0 0 1 185.376 13)" fill="#E5E5E5" stroke="#383838" stroke-width="2"/>
<rect x="-1" y="1" width="12" height="6" transform="matrix(-1 0 0 1 124.234 13)" fill="#E5E5E5" stroke="#383838" stroke-width="2"/>
<rect x="-1" y="1" width="12" height="6" transform="matrix(-1 0 0 1 63.0908 13)" fill="#E5E5E5" stroke="black" stroke-width="2"/>
<rect x="193" y="553" width="6" height="4" stroke="black" stroke-width="2"/>
<rect x="193" y="621" width="6" height="4" stroke="black" stroke-width="2"/>
<rect x="199.815" y="555.723" width="65.5993" height="2" transform="rotate(59.8331 199.815 555.723)" fill="black"/>
<path d="M231.5 612.5V612.5C222.632 617.426 212.704 620.135 202.562 620.395L198.5 620.5" stroke="black"/>
<rect x="360" y="778" width="6" height="4" transform="rotate(90 360 778)" stroke="black" stroke-width="2"/>
<rect x="275" y="778" width="6" height="4" transform="rotate(90 275 778)" stroke="black" stroke-width="2"/>
<rect x="357.415" y="784.629" width="82.8924" height="2" transform="rotate(149.829 357.415 784.629)" fill="black"/>
<path d="M286 825.498V825.498C280.095 815.985 276.68 805.138 276.071 793.957L275.5 783.498" stroke="black"/>
    <path d="M51 137H112V189H39V526H200V552H186V540H39V746H186V626H200V746H270V785H0V0H51V137Z" fill="black"/>
    <path d="M544 785H361V746H505V189H348V137H493V0H544V785Z" fill="black"/>
</svg>
